<svg
  width="25"
  height="20"
  viewBox="0 0 24 24"
  fill="none"
  xmlns="http://www.w3.org/2000/svg"
>
  <path
    d="M20 7h-4.34a3.492 3.492 0 0 0 .96-2.42C16.62 2.2 15.42 1 14 1c-.9 0-1.79.39-2.4 1L12 3l.4-1C11.79 1.39 10.9 1 10 1 8.58 1 7.38 2.2 7.38 4.58c0 .92.36 1.78.96 2.42H4c-1.1 0-2 .9-2 2v2c0 .55.45 1 1 1h1v8c0 1.1.9 2 2 2h12c1.1 0 2-.9 2-2v-8h1c.55 0 1-.45 1-1v-2c0-1.1-.9-2-2-2ZM10 3c.55 0 1 .45 1 1v4H8.82A1.991 1.991 0 0 1 8 4.58C8 3.71 8.71 3 9.58 3H10Zm6 0c.87 0 1.58.71 1.58 1.58 0 .71-.4 1.37-1.02 1.72A1.99 1.99 0 0 1 15.18 8H13V4c0-.55.45-1 1-1h2ZM4 9h16v2H4V9Zm2 4h5v8H6v-8Zm12 8h-5v-8h5v8Z"
    fill="#FFAA00"
  />
</svg>
